# xmcd CD database file
# Copyright (C) 1993-1998 Ti Kan
# 
# Track frame offsets:
#     150
#     12261
#     35437
#     47556
#     64474
#     80823
#     96388
#     106804
#     129432
#     147840
#     161518
#     178903
# 
# Disc length: 2680 seconds
# 
# Revision: 1
# Processed by: cddbd v1.4b41PL1 Copyright (c) Steve Scherf et al.
# Submitted via: DiscPlay 4.0.4
# 
DISCID=a40a760c
DTITLE=Bob Rose - Listen To The Wind
DYEAR=1900
DGENRE=
TTITLE0=Listen To The Wind
TTITLE1=Livin' Without Her
TTITLE2=Hold Your Horses Back
TTITLE3=If You Play The Lady
TTITLE4=Little Miss Maybe
TTITLE5=Carney People
TTITLE6=Blue Jean Baby
TTITLE7=Where The Stallion Run
TTITLE8=In Between The Lines
TTITLE9=My Dad
TTITLE10=Everything She Needs (To Say Goodbye)
TTITLE11=If Today Could Last Forever
EXTD=
EXTT0=
EXTT1=
EXTT2=
EXTT3=
EXTT4=
EXTT5=
EXTT6=
EXTT7=
EXTT8=
EXTT9=
EXTT10=
EXTT11=
PLAYORDER=
